# xmcd
#
# Track frame offsets:
#	150
#	12452
#	25062
#	37776
#	51114
#	63719
#	74540
#	87643
#	98299
#	111364
#	123180
#	135531
#	148898
#	160657
#	173185
#	185420
#	197859
#	210883
#	224243
#	237008
#	250492
#	263287
#	273475
#	285553
#	298932
#	311921
#	323664
#	335330
#
# Disc length: 4638 seconds
#
# Revision: 1
# Processed by: cddbd v1.5.2PL0 Copyright (c) Steve Scherf et al.
# Submitted via: EasyCDDAExtractor 8.2.3.1
#
DISCID=a8121c1c
DTITLE=Various Artist - Swinging Hollywood Hillbilly Cowboys_#4 The Hits
DYEAR=2004
DGENRE=Country
TTITLE0=Al Dexter - Triflin' Gal
TTITLE1=Cliffie Stone - Silver Stars  Purple Sage  Eyes Of Blue
TTITLE2=Jimmy Wakely - One Has My Name  The Other Has My Heart
TTITLE3=Johnny Bond - So Round  So Firm, So Fully Packed
TTITLE4=Jack Guthrie - Oklahoma Hills
TTITLE5=Roy Rogers - My Chickasay Gal
TTITLE6=Sons Of The Pioneers - Cool Water
TTITLE7=Hank Thompson - Whoa Sailor
TTITLE8=Cliffie Stone - When My Blue Moon Turns To Gold Again
TTITLE9=Al Dexter - Honey Do You Think It's Wrong
TTITLE10=Hank Thompson - The Wild Side Of Life
TTITLE11=Tex Williams - Never Trust A Woman
TTITLE12=Budd Hobbs - Lazy Mary
TTITLE13=Jimmy Wakely - I Love You So Much It Hurts Me
TTITLE14=Johnny Bond - Divorce Me C O D 
TTITLE15=Skeets McDonald - Don't Let The Stars Get In Your Eyes
TTITLE16=Sons Of The Pioneers - Cigareets And Whuskey And Wild Wild Women
TTITLE17=Tex Williams - Suspicion
TTITLE18=Al Dexter - Wine Women And Song
TTITLE19=Cliffie Stone - Peepin' Through The Keyhole
TTITLE20=Johnny Bond - Tennessee Saturday Night
TTITLE21=Hank Thompson - Rub-A-Dub Dub
TTITLE22=Jimmy Wakely - Til The End Of The World
TTITLE23=Eddie Kirk - The Gods Were Angry With Me
TTITLE24=Gene Autry - I Wish I Had Never Met Sunshine
TTITLE25=Roy Hogsed - Cocaine Blues
TTITLE26=Ramblin' Jimmie Dolan - Hot Rod Race
TTITLE27=Merle Travis  - What A Shame
EXTD=YEAR: 2004
EXTT0=
EXTT1=
EXTT2=
EXTT3=
EXTT4=
EXTT5=
EXTT6=Proper P1400  p1944-53  ©2004
EXTT7=
EXTT8=
EXTT9=
EXTT10=
EXTT11=
EXTT12=
EXTT13=
EXTT14=
EXTT15=
EXTT16=
EXTT17=
EXTT18=
EXTT19=
EXTT20=
EXTT21=\n
EXTT22=
EXTT23=
EXTT24=
EXTT25=
EXTT26=
EXTT27=
PLAYORDER=
